HIERARCHY
ROOT Hips
{
	OFFSET -21.947001 39.810204 44.525997
	CHANNELS 6 Xposition Yposition Zposition Zrotation Xrotation Yrotation
	JOINT Chest
	{
		OFFSET -0.201599 0.334099 6.453201
		CHANNELS 6 Xposition Yposition Zposition Zrotation Xrotation Yrotation
		JOINT Chest2
		{
			OFFSET 0.000000 0.000000 3.568001
			CHANNELS 6 Xposition Yposition Zposition Zrotation Xrotation Yrotation
			JOINT Neck
			{
				OFFSET 0.000000 0.000000 8.296402
				CHANNELS 6 Xposition Yposition Zposition Zrotation Xrotation Yrotation
				JOINT Head
				{
					OFFSET 0.000000 0.000000 2.173901
					CHANNELS 6 Xposition Yposition Zposition Zrotation Xrotation Yrotation
					End Site
					{
						OFFSET 0.000000 0.000000 7.891998
					}
				}
			}
			JOINT LeftCollar
			{
				OFFSET 1.927601 0.221401 6.049000
				CHANNELS 6 Xposition Yposition Zposition Zrotation Xrotation Yrotation
				JOINT LeftShoulder
				{
					OFFSET 4.959700 0.000000 0.000000
					CHANNELS 6 Xposition Yposition Zposition Zrotation Xrotation Yrotation
					JOINT LeftElbow
					{
						OFFSET 0.000000 0.000000 -8.654202
						CHANNELS 6 Xposition Yposition Zposition Zrotation Xrotation Yrotation
						JOINT LeftWrist
						{
							OFFSET 0.000000 0.000000 -13.864101
							CHANNELS 6 Xposition Yposition Zposition Zrotation Xrotation Yrotation
							End Site
							{
								OFFSET 0.000000 0.000000 -2.173901
							}
						}
					}
				}
			}
			JOINT RightCollar
			{
				OFFSET -3.155701 -0.764999 6.687801
				CHANNELS 6 Xposition Yposition Zposition Zrotation Xrotation Yrotation
				JOINT RightShoulder
				{
					OFFSET -3.592899 0.000000 0.000000
					CHANNELS 6 Xposition Yposition Zposition Zrotation Xrotation Yrotation
					JOINT RightElbow
					{
						OFFSET 0.000000 0.000000 -10.352398
						CHANNELS 6 Xposition Yposition Zposition Zrotation Xrotation Yrotation
						JOINT RightWrist
						{
							OFFSET 0.000000 0.000000 -12.750301
							CHANNELS 6 Xposition Yposition Zposition Zrotation Xrotation Yrotation
							End Site
							{
								OFFSET 0.000000 0.000000 -2.173901
							}
						}
					}
				}
			}
		}
	}
	JOINT LeftHip
	{
		OFFSET 2.460600 -0.518101 -2.735500
		CHANNELS 6 Xposition Yposition Zposition Zrotation Xrotation Yrotation
		JOINT LeftKnee
		{
			OFFSET 0.000000 -0.000004 -17.005899
			CHANNELS 6 Xposition Yposition Zposition Zrotation Xrotation Yrotation
			JOINT LeftAnkle
			{
				OFFSET 0.000000 0.000000 -19.194401
				CHANNELS 6 Xposition Yposition Zposition Zrotation Xrotation Yrotation
				End Site
				{
					OFFSET 0.000000 -8.134600 0.000000
				}
			}
		}
	}
	JOINT RightHip
	{
		OFFSET -3.115499 -0.679600 -2.320301
		CHANNELS 6 Xposition Yposition Zposition Zrotation Xrotation Yrotation
		JOINT RightKnee
		{
			OFFSET 0.000000 -0.000004 -17.680401
			CHANNELS 6 Xposition Yposition Zposition Zrotation Xrotation Yrotation
			JOINT RightAnkle
			{
				OFFSET 0.000000 0.000000 -16.993797
				CHANNELS 6 Xposition Yposition Zposition Zrotation Xrotation Yrotation
				End Site
				{
					OFFSET 0.000000 -8.842300 0.000000
				}
			}
		}
	}
}
MOTION
Frames: 4
Frame Time: 0.041667
-34.531799 24.617702 44.643093 1407.835641 -2.165281 -2.928863 -0.201600 0.334099 6.453201 30.625766 -0.184082 8.413087 0.000001 0.000007 3.567997 -26.016356 -0.348713 -5.052785 0.000000 0.000000 8.296396 34.955894 11.401794 -10.490036 0.000002 0.000004 2.173906 4.517277 -1.844020 7.409802 1.927602 0.221399 6.049000 -8.449262 -7.339107 4.993790 4.959700 0.000002 0.000012 33.322365 -14.317389 -108.352926 0.000002 -0.000006 -8.654196 77.273728 -7.932993 4.344125 -0.000004 0.000011 -13.864100 958.968723 -157.480475 190.054563 -3.155713 -0.764999 6.687808 17.033160 -10.707452 97.501353 -3.592895 0.000006 0.000006 -43.964210 -40.152097 56.846770 -0.000003 -0.000007 -10.352396 -65.682193 -107.796627 -29.240634 -0.000002 -0.000006 -12.750298 -634.505395 -8.357393 13.134163 2.460595 -0.518105 -2.735500 -13.385196 1.993743 1.932248 -0.000003 -0.000005 -17.005901 -22.870002 9.734076 16.254858 -0.000002 0.000003 -19.194395 39.068996 17.416515 6.297134 -3.115500 -0.679605 -2.320305 -59.396554 -55.113462 -29.429072 -0.000005 -0.000006 -17.680395 -258.932116 -2.399266 -107.044842 0.000000 -0.000003 -16.993801 291.923323 29.438115 -48.540416
-34.540699 24.611404 44.613594 1407.742095 -2.170099 -3.128153 -0.201595 0.334102 6.453194 30.734851 -0.199758 8.514821 0.000003 0.000007 3.567999 -25.976244 -0.320879 -5.034499 -0.000006 -0.000006 8.296394 35.558839 11.408229 -10.646157 -0.000003 0.000002 2.173899 4.574315 -1.879602 7.651889 1.927595 0.221400 6.048996 -8.587717 -7.305955 5.340751 4.959702 0.000007 0.000003 33.672665 -13.617404 -108.236157 0.000006 0.000001 -8.654199 77.793280 -8.128281 4.470109 0.000002 -0.000004 -13.864100 958.887198 -157.058110 189.338636 -3.155711 -0.765001 6.687808 17.104300 -10.466923 97.702830 -3.592893 0.000004 0.000004 -44.070047 -40.093122 56.810023 -0.000006 -0.000005 -10.352392 -66.721044 -108.067192 -30.344041 -0.000005 -0.000007 -12.750303 -634.937937 -8.320877 13.074664 2.460606 -0.518095 -2.735513 -13.374578 1.939720 2.092126 -0.000006 -0.000005 -17.005901 -23.309351 9.661653 16.289865 -0.000004 0.000006 -19.194403 38.914689 17.208971 9.816834 -3.115491 -0.679595 -2.320303 -58.741300 -55.106229 -28.813863 -0.000003 -0.000007 -17.680395 -259.307176 -2.562353 -107.159214 -0.000003 -0.000003 -16.993797 291.542390 29.348869 -48.485252
-34.550301 24.604305 44.586994 1407.650079 -2.156857 -3.248787 -0.201603 0.334097 6.453203 30.846097 -0.245285 8.543609 0.000002 0.000001 3.567999 -26.054925 -0.226716 -5.037983 -0.000001 -0.000004 8.296393 36.265856 11.336000 -10.667619 0.000003 -0.000004 2.173905 4.631991 -1.853187 7.870999 1.927604 0.221403 6.048991 -8.430801 -7.450858 5.447849 4.959706 0.000004 0.000003 33.822981 -12.971440 -107.966357 -0.000005 0.000000 -8.654198 78.563192 -8.283381 4.701500 -0.000001 0.000008 -13.864100 958.487003 -156.588302 188.854334 -3.155705 -0.764997 6.687803 17.101745 -10.327253 97.763284 -3.592900 -0.000002 0.000000 -44.057562 -40.102687 56.840954 -0.000002 0.000000 -10.352402 -66.786853 -108.132420 -30.311710 0.000002 -0.000006 -12.750305 -635.018861 -8.443804 13.071921 2.460597 -0.518098 -2.735503 -13.355347 1.812010 2.187145 -0.000001 0.000000 -17.005901 -23.910418 9.678078 16.390255 -0.000006 0.000003 -19.194397 39.201789 17.114277 11.486225 -3.115501 -0.679595 -2.320293 -58.270680 -55.035144 -28.392388 -0.000007 -0.000002 -17.680397 -259.595136 -2.566221 -107.240650 0.000003 -0.000003 -16.993797 291.544904 29.433901 -48.502485
-34.552299 24.595703 44.561096 1407.508338 -2.012018 -3.276632 -0.201588 0.334095 6.453202 31.012255 -0.492729 8.573781 -0.000002 0.000001 3.568000 -26.048617 -0.225563 -5.029797 0.000006 0.000004 8.296402 36.994780 11.322571 -10.870463 -0.000002 -0.000004 2.173898 4.609423 -1.748243 8.158567 1.927607 0.221406 6.049004 -8.610496 -7.286852 5.908207 4.959700 -0.000002 0.000002 34.215573 -12.420912 -107.875181 -0.000006 0.000000 -8.654198 79.145623 -8.506254 4.756910 0.000001 0.000004 -13.864096 958.324609 -156.285124 188.405564 -3.155701 -0.765000 6.687813 17.182039 -9.844400 97.996221 -3.592896 0.000002 0.000004 -44.282920 -39.814914 56.842651 -0.000009 -0.000002 -10.352406 -66.397375 -108.194226 -29.868793 0.000005 0.000003 -12.750302 -635.097873 -8.175070 12.728341 2.460603 -0.518105 -2.735500 -13.056036 1.509000 2.194284 -0.000004 0.000000 -17.005892 -24.302020 9.856136 16.444167 -0.000011 0.000002 -19.194399 39.006042 17.182835 12.932333 -3.115493 -0.679602 -2.320302 -57.918447 -54.963881 -28.203371 -0.000011 -0.000004 -17.680393 -259.855121 -2.364525 -107.360363 -0.000001 -0.000001 -16.993803 291.524795 29.424612 -48.156232
